<svg id="Layer_3" enable-background="new 0 0 64 64" height="512" viewBox="0 0 64 64" width="512" xmlns="http://www.w3.org/2000/svg"><path d="m3 45c3.309 0 6-2.691 6-6v-6c0-2.437 1.755-4.466 4.065-4.906-.038.298-.065.598-.065.906v11c0 1.654-1.346 3-3 3-.553 0-1 .448-1 1v13c0 .082.01.163.03.243l1 4c.112.445.511.757.97.757h5c.553 0 1-.448 1-1v-2c0-.155-.036-.309-.105-.447l-.895-1.789v-7.809c1.051-.095 2.055-.346 3-.717v8.762c0 .082.01.163.03.243l1 4c.112.445.511.757.97.757h5c.553 0 1-.448 1-1v-2c0-.155-.036-.309-.105-.447l-.895-1.789v-13.764h14v14c0 .082.01.163.03.243l1 4c.112.445.511.757.97.757h5c.553 0 1-.448 1-1v-2c0-.155-.036-.309-.105-.447l-.895-1.789v-14.498l.25-.438 4.559 5.319-1.631 3.261-.885.885c-.188.187-.293.442-.293.707v5c0 .552.447 1 1 1h2c.155 0 .309-.036.447-.105l2-1c.17-.085.312-.217.41-.38l3.706-6.177c1.601-2.668 1.27-6.008-.822-8.31l-6.741-7.415v-13.332l6.758 1.689c.426.106.873-.08 1.1-.456l3-5c.236-.394.174-.897-.15-1.222l-4.467-4.467 4.634-8.341c.217-.391.148-.877-.167-1.193-.316-.316-.803-.385-1.192-.167l-8.775 4.876h-1.39c-.941-.792-2.106-1.244-3.351-1.244-1.4 0-2.716.545-3.705 1.535l-14.709 14.709h-8.586-7c-6.065 0-11 4.935-11 11v11c0 .552.447 1 1 1zm1-12c0-.096.011-.189.014-.284l3.115-1.038c-.082.428-.129.87-.129 1.322v.638l-3 3.6zm0 9.874v-2.511l3-3.6v2.237c0 1.86-1.276 3.428-3 3.874zm21 17.126h-3.219l-.781-3.123v-9.685c1.178-.772 2.193-1.759 3-2.911v12.719c0 .155.036.309.105.447l.895 1.789zm31.849-10.691-3.557 5.927-1.528.764h-.764v-3.586l.707-.707c.076-.076.14-.164.188-.26l2-4c.18-.36.127-.792-.136-1.098l-5.455-6.365 1.882-3.294 6.075 6.683c1.495 1.645 1.73 4.03.588 5.936zm-3.205-41.079.358-.199 2.685.671-.918 1.653zm4.049-1.337-1.132-.283 1.865-1.036zm-9.238 1.238-1.869 1.869h-3.172l1.295-1.295c.979-.979 2.534-1.161 3.746-.574zm-9.869 9.869h-3.172l2-2h3.172zm4-4h-3.172l2-2h3.172zm-9.172 6h3.172l-2 2h-3.172zm1.586 4c.266 0 .52-.105.707-.293l14.707-14.707h1.172l8.155 8.155-2.218 3.695-7.281-1.82c-.296-.074-.614-.007-.857.182s-.385.48-.385.788v14.734l-3.868 6.77c-.086.151-.132.322-.132.496v15c0 .155.036.309.105.447l.895 1.789v.764h-3.219l-.781-3.123v-14.877c0-.552-.447-1-1-1h-15.416c.271-.954.416-1.96.416-3v-1h-2v1c0 3.483-1.993 6.505-4.896 8h-.104v.05c-1.207.603-2.562.95-4 .95-.553 0-1 .448-1 1v9c0 .155.036.309.105.447l.895 1.789v.764h-3.219l-.781-3.123v-11.978c2.279-.464 4-2.485 4-4.899v-11c0-2.757 2.243-5 5-5zm-19.889 0c-.591.578-1.075 1.261-1.433 2.016-.183.008-.364.021-.543.043l.007-.049-4.814-.688c1.364-.833 2.96-1.322 4.672-1.322zm-8.844 3.048 3.377.482c-.604.482-1.124 1.062-1.541 1.715l-3.74 1.246c.376-1.291 1.035-2.461 1.904-3.443z"/><circle cx="53" cy="14" r="1"/></svg>